<mxfile host="app.diagrams.net" modified="2024-06-13T23:46:35.362Z" agent="Mozilla/5.0 (Windows NT 10.0; Win64; x64; rv:127.0) Gecko/20100101 Firefox/127.0" etag="WKFOoj6Leb9i6N_v6yFB" version="24.5.4" type="github" pages="5">
  <diagram id="C5RBs43oDa-KdzZeNtuy" name="22602">
    <mxGraphModel dx="1050" dy="522" grid="1" gridSize="10" guides="1" tooltips="1" connect="1" arrows="1" fold="1" page="1" pageScale="1" pageWidth="827" pageHeight="1169" math="0" shadow="0">
      <root>
        <mxCell id="WIyWlLk6GJQsqaUBKTNV-0" />
        <mxCell id="WIyWlLk6GJQsqaUBKTNV-1" parent="WIyWlLk6GJQsqaUBKTNV-0" />
        <mxCell id="WIyWlLk6GJQsqaUBKTNV-2" value="" style="rounded=0;html=1;jettySize=auto;orthogonalLoop=1;fontSize=11;endArrow=block;endFill=0;endSize=8;strokeWidth=1;shadow=0;labelBackgroundColor=none;edgeStyle=orthogonalEdgeStyle;" parent="WIyWlLk6GJQsqaUBKTNV-1" source="WIyWlLk6GJQsqaUBKTNV-3" target="WIyWlLk6GJQsqaUBKTNV-6" edge="1">
          <mxGeometry relative="1" as="geometry" />
        </mxCell>
        <mxCell id="WIyWlLk6GJQsqaUBKTNV-3" value="AI Model" style="rounded=1;whiteSpace=wrap;html=1;fontSize=12;glass=0;strokeWidth=1;shadow=0;" parent="WIyWlLk6GJQsqaUBKTNV-1" vertex="1">
          <mxGeometry x="160" y="80" width="120" height="40" as="geometry" />
        </mxCell>
        <mxCell id="WIyWlLk6GJQsqaUBKTNV-4" value="Yes" style="rounded=0;html=1;jettySize=auto;orthogonalLoop=1;fontSize=11;endArrow=block;endFill=0;endSize=8;strokeWidth=1;shadow=0;labelBackgroundColor=none;edgeStyle=orthogonalEdgeStyle;" parent="WIyWlLk6GJQsqaUBKTNV-1" source="WIyWlLk6GJQsqaUBKTNV-6" target="WIyWlLk6GJQsqaUBKTNV-10" edge="1">
          <mxGeometry y="20" relative="1" as="geometry">
            <mxPoint as="offset" />
          </mxGeometry>
        </mxCell>
        <mxCell id="WIyWlLk6GJQsqaUBKTNV-5" value="No" style="edgeStyle=orthogonalEdgeStyle;rounded=0;html=1;jettySize=auto;orthogonalLoop=1;fontSize=11;endArrow=block;endFill=0;endSize=8;strokeWidth=1;shadow=0;labelBackgroundColor=none;" parent="WIyWlLk6GJQsqaUBKTNV-1" source="WIyWlLk6GJQsqaUBKTNV-6" target="WIyWlLk6GJQsqaUBKTNV-7" edge="1">
          <mxGeometry y="10" relative="1" as="geometry">
            <mxPoint as="offset" />
          </mxGeometry>
        </mxCell>
        <mxCell id="WIyWlLk6GJQsqaUBKTNV-6" value="&lt;font style=&quot;font-size: 11px;&quot;&gt;Trained on &amp;gt;10^26 FLOPs&lt;/font&gt;" style="rhombus;whiteSpace=wrap;html=1;shadow=0;fontFamily=Helvetica;fontSize=12;align=center;strokeWidth=1;spacing=6;spacingTop=-6;" parent="WIyWlLk6GJQsqaUBKTNV-1" vertex="1">
          <mxGeometry x="170" y="170" width="100" height="80" as="geometry" />
        </mxCell>
        <mxCell id="WIyWlLk6GJQsqaUBKTNV-7" value="NOT COVERED" style="rounded=1;whiteSpace=wrap;html=1;fontSize=12;glass=0;strokeWidth=1;shadow=0;" parent="WIyWlLk6GJQsqaUBKTNV-1" vertex="1">
          <mxGeometry x="320" y="190" width="120" height="40" as="geometry" />
        </mxCell>
        <mxCell id="WIyWlLk6GJQsqaUBKTNV-8" value="Yes" style="rounded=0;html=1;jettySize=auto;orthogonalLoop=1;fontSize=11;endArrow=block;endFill=0;endSize=8;strokeWidth=1;shadow=0;labelBackgroundColor=none;edgeStyle=orthogonalEdgeStyle;" parent="WIyWlLk6GJQsqaUBKTNV-1" source="WIyWlLk6GJQsqaUBKTNV-10" target="WIyWlLk6GJQsqaUBKTNV-11" edge="1">
          <mxGeometry x="0.3333" y="20" relative="1" as="geometry">
            <mxPoint as="offset" />
          </mxGeometry>
        </mxCell>
        <mxCell id="WIyWlLk6GJQsqaUBKTNV-9" value="No" style="edgeStyle=orthogonalEdgeStyle;rounded=0;html=1;jettySize=auto;orthogonalLoop=1;fontSize=11;endArrow=block;endFill=0;endSize=8;strokeWidth=1;shadow=0;labelBackgroundColor=none;" parent="WIyWlLk6GJQsqaUBKTNV-1" source="WIyWlLk6GJQsqaUBKTNV-10" target="WIyWlLk6GJQsqaUBKTNV-12" edge="1">
          <mxGeometry y="10" relative="1" as="geometry">
            <mxPoint as="offset" />
          </mxGeometry>
        </mxCell>
        <mxCell id="WIyWlLk6GJQsqaUBKTNV-10" value="&lt;font style=&quot;font-size: 11px;&quot;&gt;Training Cost &amp;gt;$100MM&lt;/font&gt;" style="rhombus;whiteSpace=wrap;html=1;shadow=0;fontFamily=Helvetica;fontSize=12;align=center;strokeWidth=1;spacing=6;spacingTop=2;" parent="WIyWlLk6GJQsqaUBKTNV-1" vertex="1">
          <mxGeometry x="170" y="290" width="100" height="80" as="geometry" />
        </mxCell>
        <mxCell id="WIyWlLk6GJQsqaUBKTNV-11" value="Covered Model" style="rounded=1;whiteSpace=wrap;html=1;fontSize=12;glass=0;strokeWidth=1;shadow=0;" parent="WIyWlLk6GJQsqaUBKTNV-1" vertex="1">
          <mxGeometry x="160" y="430" width="120" height="40" as="geometry" />
        </mxCell>
        <mxCell id="WIyWlLk6GJQsqaUBKTNV-12" value="NOT COVERED" style="rounded=1;whiteSpace=wrap;html=1;fontSize=12;glass=0;strokeWidth=1;shadow=0;" parent="WIyWlLk6GJQsqaUBKTNV-1" vertex="1">
          <mxGeometry x="320" y="310" width="120" height="40" as="geometry" />
        </mxCell>
        <mxCell id="lsJyR3Wg0nM14VShBqVX-0" value="" style="rounded=0;html=1;jettySize=auto;orthogonalLoop=1;fontSize=11;endArrow=block;endFill=0;endSize=8;strokeWidth=1;shadow=0;labelBackgroundColor=none;edgeStyle=orthogonalEdgeStyle;" parent="WIyWlLk6GJQsqaUBKTNV-1" source="lsJyR3Wg0nM14VShBqVX-1" target="lsJyR3Wg0nM14VShBqVX-4" edge="1">
          <mxGeometry relative="1" as="geometry" />
        </mxCell>
        <mxCell id="lsJyR3Wg0nM14VShBqVX-1" value="AI Model" style="rounded=1;whiteSpace=wrap;html=1;fontSize=12;glass=0;strokeWidth=1;shadow=0;" parent="WIyWlLk6GJQsqaUBKTNV-1" vertex="1">
          <mxGeometry x="490" y="80" width="120" height="40" as="geometry" />
        </mxCell>
        <mxCell id="lsJyR3Wg0nM14VShBqVX-2" value="No" style="rounded=0;html=1;jettySize=auto;orthogonalLoop=1;fontSize=11;endArrow=block;endFill=0;endSize=8;strokeWidth=1;shadow=0;labelBackgroundColor=none;edgeStyle=orthogonalEdgeStyle;" parent="WIyWlLk6GJQsqaUBKTNV-1" source="lsJyR3Wg0nM14VShBqVX-4" target="lsJyR3Wg0nM14VShBqVX-8" edge="1">
          <mxGeometry y="20" relative="1" as="geometry">
            <mxPoint as="offset" />
          </mxGeometry>
        </mxCell>
        <mxCell id="lsJyR3Wg0nM14VShBqVX-3" value="Yes" style="edgeStyle=orthogonalEdgeStyle;rounded=0;html=1;jettySize=auto;orthogonalLoop=1;fontSize=11;endArrow=block;endFill=0;endSize=8;strokeWidth=1;shadow=0;labelBackgroundColor=none;" parent="WIyWlLk6GJQsqaUBKTNV-1" source="lsJyR3Wg0nM14VShBqVX-4" target="lsJyR3Wg0nM14VShBqVX-5" edge="1">
          <mxGeometry y="10" relative="1" as="geometry">
            <mxPoint as="offset" />
          </mxGeometry>
        </mxCell>
        <mxCell id="lsJyR3Wg0nM14VShBqVX-4" value="&lt;font style=&quot;font-size: 11px;&quot;&gt;Entirely Independently Trained&lt;/font&gt;" style="rhombus;whiteSpace=wrap;html=1;shadow=0;fontFamily=Helvetica;fontSize=12;align=center;strokeWidth=1;spacing=6;spacingTop=-4;" parent="WIyWlLk6GJQsqaUBKTNV-1" vertex="1">
          <mxGeometry x="500" y="170" width="100" height="80" as="geometry" />
        </mxCell>
        <mxCell id="lsJyR3Wg0nM14VShBqVX-5" value="NOT DERIVATIVE" style="rounded=1;whiteSpace=wrap;html=1;fontSize=12;glass=0;strokeWidth=1;shadow=0;" parent="WIyWlLk6GJQsqaUBKTNV-1" vertex="1">
          <mxGeometry x="650" y="190" width="120" height="40" as="geometry" />
        </mxCell>
        <mxCell id="lsJyR3Wg0nM14VShBqVX-6" value="No" style="rounded=0;html=1;jettySize=auto;orthogonalLoop=1;fontSize=11;endArrow=block;endFill=0;endSize=8;strokeWidth=1;shadow=0;labelBackgroundColor=none;edgeStyle=orthogonalEdgeStyle;" parent="WIyWlLk6GJQsqaUBKTNV-1" source="lsJyR3Wg0nM14VShBqVX-8" target="lsJyR3Wg0nM14VShBqVX-9" edge="1">
          <mxGeometry x="0.3333" y="20" relative="1" as="geometry">
            <mxPoint as="offset" />
          </mxGeometry>
        </mxCell>
        <mxCell id="lsJyR3Wg0nM14VShBqVX-7" value="Yes" style="edgeStyle=orthogonalEdgeStyle;rounded=0;html=1;jettySize=auto;orthogonalLoop=1;fontSize=11;endArrow=block;endFill=0;endSize=8;strokeWidth=1;shadow=0;labelBackgroundColor=none;" parent="WIyWlLk6GJQsqaUBKTNV-1" source="lsJyR3Wg0nM14VShBqVX-8" target="lsJyR3Wg0nM14VShBqVX-10" edge="1">
          <mxGeometry y="10" relative="1" as="geometry">
            <mxPoint as="offset" />
          </mxGeometry>
        </mxCell>
        <mxCell id="lsJyR3Wg0nM14VShBqVX-8" value="&lt;font style=&quot;font-size: 9px;&quot;&gt;Fine&amp;nbsp;&lt;/font&gt;&lt;div&gt;&lt;font style=&quot;font-size: 9px;&quot;&gt;Tuned with&lt;/font&gt;&lt;div&gt;&lt;font style=&quot;font-size: 9px;&quot;&gt;&amp;gt;25% FLOPs of Original Model&amp;nbsp;&lt;/font&gt;&lt;/div&gt;&lt;/div&gt;" style="rhombus;whiteSpace=wrap;html=1;shadow=0;fontFamily=Helvetica;fontSize=12;align=center;strokeWidth=1;spacing=6;spacingTop=-10;" parent="WIyWlLk6GJQsqaUBKTNV-1" vertex="1">
          <mxGeometry x="490" y="285" width="120" height="90" as="geometry" />
        </mxCell>
        <mxCell id="lsJyR3Wg0nM14VShBqVX-9" value="Derivative Model" style="rounded=1;whiteSpace=wrap;html=1;fontSize=12;glass=0;strokeWidth=1;shadow=0;" parent="WIyWlLk6GJQsqaUBKTNV-1" vertex="1">
          <mxGeometry x="490" y="430" width="120" height="40" as="geometry" />
        </mxCell>
        <mxCell id="lsJyR3Wg0nM14VShBqVX-10" value="NOT DERIVATIVE" style="rounded=1;whiteSpace=wrap;html=1;fontSize=12;glass=0;strokeWidth=1;shadow=0;" parent="WIyWlLk6GJQsqaUBKTNV-1" vertex="1">
          <mxGeometry x="650" y="310" width="120" height="40" as="geometry" />
        </mxCell>
      </root>
    </mxGraphModel>
  </diagram>
  <diagram id="eh5qC0OMtD47MLs5pBxJ" name="22603(a)">
    <mxGraphModel dx="519" dy="672" grid="1" gridSize="10" guides="1" tooltips="1" connect="1" arrows="1" fold="1" page="1" pageScale="1" pageWidth="850" pageHeight="1100" math="1" shadow="0">
      <root>
        <mxCell id="0" />
        <mxCell id="1" parent="0" />
        <mxCell id="Hn0iShwKN7-sHJlZEDqD-1" value="(a) Does Limited Duty Exemption Apply?&lt;div&gt;&amp;nbsp; &amp;nbsp; &amp;nbsp;Before training &lt;font color=&quot;#ff0000&quot;&gt;Covered Model&lt;/font&gt;&amp;nbsp;that is not a DM ...&lt;/div&gt;" style="text;strokeColor=none;align=left;fillColor=none;html=1;verticalAlign=middle;whiteSpace=wrap;rounded=0;" vertex="1" parent="1">
          <mxGeometry x="245" y="20" width="295" height="30" as="geometry" />
        </mxCell>
        <mxCell id="ZTIk_XsdjdtVn8a1Mj-c-1" value="" style="rounded=0;html=1;jettySize=auto;orthogonalLoop=1;fontSize=11;endArrow=block;endFill=0;endSize=8;strokeWidth=1;shadow=0;labelBackgroundColor=none;edgeStyle=orthogonalEdgeStyle;entryX=0.5;entryY=0;entryDx=0;entryDy=0;" edge="1" parent="1" source="ZTIk_XsdjdtVn8a1Mj-c-2" target="ZTIk_XsdjdtVn8a1Mj-c-12">
          <mxGeometry relative="1" as="geometry">
            <mxPoint x="360" y="175" as="targetPoint" />
          </mxGeometry>
        </mxCell>
        <mxCell id="ZTIk_XsdjdtVn8a1Mj-c-2" value="Covered Model" style="rounded=1;whiteSpace=wrap;html=1;fontSize=12;glass=0;strokeWidth=1;shadow=0;" vertex="1" parent="1">
          <mxGeometry x="300" y="90" width="120" height="40" as="geometry" />
        </mxCell>
        <mxCell id="ZTIk_XsdjdtVn8a1Mj-c-3" value="Yes" style="rounded=0;html=1;jettySize=auto;orthogonalLoop=1;fontSize=11;endArrow=block;endFill=0;endSize=8;strokeWidth=1;shadow=0;labelBackgroundColor=none;edgeStyle=orthogonalEdgeStyle;" edge="1" parent="1" source="ZTIk_XsdjdtVn8a1Mj-c-5" target="ZTIk_XsdjdtVn8a1Mj-c-9">
          <mxGeometry y="20" relative="1" as="geometry">
            <mxPoint as="offset" />
          </mxGeometry>
        </mxCell>
        <mxCell id="ZTIk_XsdjdtVn8a1Mj-c-4" value="No" style="edgeStyle=orthogonalEdgeStyle;rounded=0;html=1;jettySize=auto;orthogonalLoop=1;fontSize=11;endArrow=block;endFill=0;endSize=8;strokeWidth=1;shadow=0;labelBackgroundColor=none;" edge="1" parent="1" source="ZTIk_XsdjdtVn8a1Mj-c-5" target="ZTIk_XsdjdtVn8a1Mj-c-6">
          <mxGeometry y="10" relative="1" as="geometry">
            <mxPoint as="offset" />
          </mxGeometry>
        </mxCell>
        <mxCell id="ZTIk_XsdjdtVn8a1Mj-c-5" value="&lt;font style=&quot;font-size: 11px;&quot;&gt;Lower&lt;/font&gt;&lt;div&gt;&lt;font style=&quot;font-size: 11px;&quot;&gt;performance on 22602(f)&lt;/font&gt;&lt;/div&gt;&lt;div&gt;&lt;font style=&quot;font-size: 11px;&quot;&gt;benchmarks&lt;/font&gt;&lt;/div&gt;&lt;div&gt;&lt;font style=&quot;font-size: 11px;&quot;&gt;[removed?]&lt;/font&gt;&lt;/div&gt;" style="rhombus;whiteSpace=wrap;html=1;shadow=0;fontFamily=Helvetica;fontSize=12;align=center;strokeWidth=1;spacing=6;spacingTop=-6;" vertex="1" parent="1">
          <mxGeometry x="250" y="260" width="220" height="110" as="geometry" />
        </mxCell>
        <mxCell id="ZTIk_XsdjdtVn8a1Mj-c-6" value="No LDE" style="rounded=1;whiteSpace=wrap;html=1;fontSize=12;glass=0;strokeWidth=1;shadow=0;" vertex="1" parent="1">
          <mxGeometry x="540" y="295" width="120" height="40" as="geometry" />
        </mxCell>
        <mxCell id="ZTIk_XsdjdtVn8a1Mj-c-7" value="Yes" style="rounded=0;html=1;jettySize=auto;orthogonalLoop=1;fontSize=11;endArrow=block;endFill=0;endSize=8;strokeWidth=1;shadow=0;labelBackgroundColor=none;edgeStyle=orthogonalEdgeStyle;entryX=0.5;entryY=0;entryDx=0;entryDy=0;" edge="1" parent="1" source="ZTIk_XsdjdtVn8a1Mj-c-9" target="ZTIk_XsdjdtVn8a1Mj-c-22">
          <mxGeometry x="0.3333" y="20" relative="1" as="geometry">
            <mxPoint as="offset" />
            <mxPoint x="360" y="550" as="targetPoint" />
          </mxGeometry>
        </mxCell>
        <mxCell id="ZTIk_XsdjdtVn8a1Mj-c-8" value="No" style="edgeStyle=orthogonalEdgeStyle;rounded=0;html=1;jettySize=auto;orthogonalLoop=1;fontSize=11;endArrow=block;endFill=0;endSize=8;strokeWidth=1;shadow=0;labelBackgroundColor=none;" edge="1" parent="1" source="ZTIk_XsdjdtVn8a1Mj-c-9" target="ZTIk_XsdjdtVn8a1Mj-c-11">
          <mxGeometry y="10" relative="1" as="geometry">
            <mxPoint as="offset" />
          </mxGeometry>
        </mxCell>
        <mxCell id="ZTIk_XsdjdtVn8a1Mj-c-9" value="" style="rhombus;whiteSpace=wrap;html=1;shadow=0;fontFamily=Helvetica;fontSize=12;align=center;strokeWidth=1;spacing=6;spacingTop=2;" vertex="1" parent="1">
          <mxGeometry x="220" y="410" width="280" height="120" as="geometry" />
        </mxCell>
        <mxCell id="ZTIk_XsdjdtVn8a1Mj-c-11" value="No LDE" style="rounded=1;whiteSpace=wrap;html=1;fontSize=12;glass=0;strokeWidth=1;shadow=0;" vertex="1" parent="1">
          <mxGeometry x="540" y="450" width="120" height="40" as="geometry" />
        </mxCell>
        <mxCell id="ZTIk_XsdjdtVn8a1Mj-c-15" style="edgeStyle=orthogonalEdgeStyle;rounded=0;orthogonalLoop=1;jettySize=auto;html=1;entryX=0.5;entryY=0;entryDx=0;entryDy=0;" edge="1" parent="1" source="ZTIk_XsdjdtVn8a1Mj-c-12" target="ZTIk_XsdjdtVn8a1Mj-c-5">
          <mxGeometry relative="1" as="geometry" />
        </mxCell>
        <mxCell id="ZTIk_XsdjdtVn8a1Mj-c-12" value="(1) Use &quot;covered guidance&quot;&lt;div&gt;NIST + FMD&lt;/div&gt;&lt;div&gt;Insutry best practices/comperable testing&lt;/div&gt;" style="rounded=1;whiteSpace=wrap;html=1;fontSize=12;glass=0;strokeWidth=1;shadow=0;" vertex="1" parent="1">
          <mxGeometry x="235" y="170" width="250" height="50" as="geometry" />
        </mxCell>
        <mxCell id="ZTIk_XsdjdtVn8a1Mj-c-14" value="Model developer &lt;b style=&quot;&quot;&gt;may&lt;/b&gt; use the following criteria to determnine if LDE applies&quot;" style="text;strokeColor=none;align=center;fillColor=none;html=1;verticalAlign=middle;whiteSpace=wrap;rounded=0;" vertex="1" parent="1">
          <mxGeometry x="220" y="60" width="295" height="30" as="geometry" />
        </mxCell>
        <mxCell id="ZTIk_XsdjdtVn8a1Mj-c-16" value="general&lt;div&gt;capability&lt;/div&gt;" style="text;html=1;align=center;verticalAlign=middle;whiteSpace=wrap;rounded=0;" vertex="1" parent="1">
          <mxGeometry x="260" y="455" width="60" height="30" as="geometry" />
        </mxCell>
        <mxCell id="ZTIk_XsdjdtVn8a1Mj-c-18" value="&lt;br&gt;&lt;span style=&quot;color: rgb(0, 0, 0); font-family: Helvetica; font-size: 11px; font-style: normal; font-variant-ligatures: normal; font-variant-caps: normal; font-weight: 400; letter-spacing: normal; orphans: 2; text-align: center; text-indent: 0px; text-transform: none; widows: 2; word-spacing: 0px; -webkit-text-stroke-width: 0px; white-space: normal; background-color: rgb(251, 251, 251); text-decoration-thickness: initial; text-decoration-style: initial; text-decoration-color: initial; display: inline !important; float: none;&quot;&gt;noncovered model that lacks HC&lt;/span&gt;&lt;div&gt;&lt;br&gt;&lt;/div&gt;" style="text;html=1;align=center;verticalAlign=middle;whiteSpace=wrap;rounded=0;" vertex="1" parent="1">
          <mxGeometry x="360" y="455" width="90" height="30" as="geometry" />
        </mxCell>
        <mxCell id="ZTIk_XsdjdtVn8a1Mj-c-19" value="&lt;br style=&quot;font-size: 21px;&quot;&gt;\(\leq\)&lt;div style=&quot;font-size: 21px;&quot;&gt;&lt;br style=&quot;font-size: 21px;&quot;&gt;&lt;/div&gt;" style="text;html=1;align=center;verticalAlign=middle;whiteSpace=wrap;rounded=0;fontSize=21;" vertex="1" parent="1">
          <mxGeometry x="310" y="455" width="60" height="30" as="geometry" />
        </mxCell>
        <mxCell id="ZTIk_XsdjdtVn8a1Mj-c-20" value="Yes" style="rounded=0;html=1;jettySize=auto;orthogonalLoop=1;fontSize=11;endArrow=block;endFill=0;endSize=8;strokeWidth=1;shadow=0;labelBackgroundColor=none;edgeStyle=orthogonalEdgeStyle;" edge="1" parent="1" source="ZTIk_XsdjdtVn8a1Mj-c-22" target="ZTIk_XsdjdtVn8a1Mj-c-23">
          <mxGeometry x="0.3333" y="20" relative="1" as="geometry">
            <mxPoint as="offset" />
          </mxGeometry>
        </mxCell>
        <mxCell id="ZTIk_XsdjdtVn8a1Mj-c-21" value="No" style="edgeStyle=orthogonalEdgeStyle;rounded=0;html=1;jettySize=auto;orthogonalLoop=1;fontSize=11;endArrow=block;endFill=0;endSize=8;strokeWidth=1;shadow=0;labelBackgroundColor=none;" edge="1" parent="1" source="ZTIk_XsdjdtVn8a1Mj-c-22" target="ZTIk_XsdjdtVn8a1Mj-c-24">
          <mxGeometry y="10" relative="1" as="geometry">
            <mxPoint as="offset" />
          </mxGeometry>
        </mxCell>
        <mxCell id="ZTIk_XsdjdtVn8a1Mj-c-22" value="" style="rhombus;whiteSpace=wrap;html=1;shadow=0;fontFamily=Helvetica;fontSize=12;align=center;strokeWidth=1;spacing=6;spacingTop=2;" vertex="1" parent="1">
          <mxGeometry x="220" y="610" width="280" height="120" as="geometry" />
        </mxCell>
        <mxCell id="ZTIk_XsdjdtVn8a1Mj-c-23" value="LDE" style="rounded=1;whiteSpace=wrap;html=1;fontSize=12;glass=0;strokeWidth=1;shadow=0;" vertex="1" parent="1">
          <mxGeometry x="290" y="760" width="140" height="40" as="geometry" />
        </mxCell>
        <mxCell id="ZTIk_XsdjdtVn8a1Mj-c-24" value="No LDE" style="rounded=1;whiteSpace=wrap;html=1;fontSize=12;glass=0;strokeWidth=1;shadow=0;" vertex="1" parent="1">
          <mxGeometry x="540" y="650" width="120" height="40" as="geometry" />
        </mxCell>
        <mxCell id="ZTIk_XsdjdtVn8a1Mj-c-25" value="general&lt;div&gt;capability&lt;/div&gt;" style="text;html=1;align=center;verticalAlign=middle;whiteSpace=wrap;rounded=0;" vertex="1" parent="1">
          <mxGeometry x="260" y="655" width="60" height="30" as="geometry" />
        </mxCell>
        <mxCell id="ZTIk_XsdjdtVn8a1Mj-c-26" value="other limited duty model" style="text;html=1;align=center;verticalAlign=middle;whiteSpace=wrap;rounded=0;" vertex="1" parent="1">
          <mxGeometry x="360" y="655" width="90" height="30" as="geometry" />
        </mxCell>
        <mxCell id="ZTIk_XsdjdtVn8a1Mj-c-27" value="&lt;br style=&quot;font-size: 21px;&quot;&gt;\(\leq\)&lt;div style=&quot;font-size: 21px;&quot;&gt;&lt;br style=&quot;font-size: 21px;&quot;&gt;&lt;/div&gt;" style="text;html=1;align=center;verticalAlign=middle;whiteSpace=wrap;rounded=0;fontSize=21;" vertex="1" parent="1">
          <mxGeometry x="310" y="655" width="60" height="30" as="geometry" />
        </mxCell>
        <mxCell id="ZTIk_XsdjdtVn8a1Mj-c-29" value="Submit certification to FMD&lt;div&gt;(good-faith error is OK)&lt;/div&gt;" style="rounded=1;whiteSpace=wrap;html=1;fontSize=12;glass=0;strokeWidth=1;shadow=0;" vertex="1" parent="1">
          <mxGeometry x="280" y="830" width="160" height="40" as="geometry" />
        </mxCell>
        <mxCell id="ZTIk_XsdjdtVn8a1Mj-c-30" value="" style="rounded=0;html=1;jettySize=auto;orthogonalLoop=1;fontSize=11;endArrow=block;endFill=0;endSize=8;strokeWidth=1;shadow=0;labelBackgroundColor=none;edgeStyle=orthogonalEdgeStyle;exitX=0.5;exitY=1;exitDx=0;exitDy=0;entryX=0.5;entryY=0;entryDx=0;entryDy=0;" edge="1" parent="1" source="ZTIk_XsdjdtVn8a1Mj-c-23" target="ZTIk_XsdjdtVn8a1Mj-c-29">
          <mxGeometry x="0.3333" y="20" relative="1" as="geometry">
            <mxPoint as="offset" />
            <mxPoint x="370" y="740" as="sourcePoint" />
            <mxPoint x="370" y="770" as="targetPoint" />
          </mxGeometry>
        </mxCell>
        <mxCell id="BT6ksym2DtmmOoYC_xDd-1" value="&lt;div&gt;&amp;nbsp; CH = Critical Harm&lt;/div&gt;&lt;div&gt;&amp;nbsp; CM = Covered Model&lt;/div&gt;&lt;div&gt;&amp;nbsp; DM = Derivative Model&lt;/div&gt;FMD =&amp;nbsp;&lt;span style=&quot;&quot;&gt;Frontier Model Division&lt;/span&gt;&lt;div&gt;&amp;nbsp; &amp;nbsp;FT = Fine Tuning&lt;/div&gt;&lt;div&gt;&amp;nbsp; HC = Hazardous Capability&lt;br&gt;&lt;div&gt;&amp;nbsp;LDE = Limited Duty Exemption&lt;span style=&quot;&quot;&gt;&lt;br&gt;&lt;/span&gt;&lt;/div&gt;&lt;div&gt;&lt;span style=&quot;&quot;&gt;NIST =&amp;nbsp;&lt;/span&gt;&lt;span style=&quot;background-color: initial;&quot;&gt;National Institute of&lt;/span&gt;&lt;/div&gt;&lt;div&gt;&lt;span style=&quot;background-color: initial;&quot;&gt;&amp;nbsp; &amp;nbsp; &amp;nbsp; &amp;nbsp; &amp;nbsp; &amp;nbsp; Standards and&lt;/span&gt;&lt;/div&gt;&lt;div&gt;&lt;span style=&quot;background-color: initial;&quot;&gt;&amp;nbsp; &amp;nbsp; &amp;nbsp; &amp;nbsp; &amp;nbsp; &amp;nbsp; Technology&lt;/span&gt;&lt;/div&gt;&lt;div&gt;&lt;br&gt;&lt;/div&gt;&lt;/div&gt;" style="text;html=1;align=left;verticalAlign=middle;whiteSpace=wrap;rounded=0;" vertex="1" parent="1">
          <mxGeometry x="40" y="90" width="170" height="170" as="geometry" />
        </mxCell>
      </root>
    </mxGraphModel>
  </diagram>
  <diagram name="22603(b)" id="qdWuGC7MhuZQAb6KF17o">
    <mxGraphModel dx="1287" dy="677" grid="1" gridSize="10" guides="1" tooltips="1" connect="1" arrows="1" fold="1" page="1" pageScale="1" pageWidth="850" pageHeight="1100" math="1" shadow="0">
      <root>
        <mxCell id="K0Vo0GqA2gB-A2LjvXNX-0" />
        <mxCell id="K0Vo0GqA2gB-A2LjvXNX-1" parent="K0Vo0GqA2gB-A2LjvXNX-0" />
        <mxCell id="K0Vo0GqA2gB-A2LjvXNX-2" value="(b)&amp;nbsp;&lt;span style=&quot;background-color: initial;&quot;&gt;Before training &lt;/span&gt;&lt;font color=&quot;#ff0000&quot; style=&quot;background-color: initial;&quot;&gt;Covered Model&lt;/font&gt;&lt;span style=&quot;background-color: initial;&quot;&gt;&amp;nbsp;that is not DM and not LDE and until LDE ...&lt;/span&gt;" style="text;strokeColor=none;align=left;fillColor=none;html=1;verticalAlign=middle;whiteSpace=wrap;rounded=0;" vertex="1" parent="K0Vo0GqA2gB-A2LjvXNX-1">
          <mxGeometry x="220" y="20" width="310" height="30" as="geometry" />
        </mxCell>
        <mxCell id="K0Vo0GqA2gB-A2LjvXNX-3" value="" style="rounded=0;html=1;jettySize=auto;orthogonalLoop=1;fontSize=11;endArrow=block;endFill=0;endSize=8;strokeWidth=1;shadow=0;labelBackgroundColor=none;edgeStyle=orthogonalEdgeStyle;entryX=0.5;entryY=0;entryDx=0;entryDy=0;" edge="1" parent="K0Vo0GqA2gB-A2LjvXNX-1" source="K0Vo0GqA2gB-A2LjvXNX-4" target="K0Vo0GqA2gB-A2LjvXNX-14">
          <mxGeometry relative="1" as="geometry">
            <mxPoint x="360" y="175" as="targetPoint" />
          </mxGeometry>
        </mxCell>
        <mxCell id="K0Vo0GqA2gB-A2LjvXNX-4" value="Implement administrative, technical, and physical cybersecurity protections to prevent unauthorized access to, or misuse or unsafe modification of, the CM, including to prevent theft, misappropriation, malicious use, or inadvertent release or escape of the model weights from the developer’s custody, &lt;b&gt;that are appropriate in light of the risks associated with the covered model&lt;/b&gt;, including from advanced persistent threats or other sophisticated actors" style="rounded=1;whiteSpace=wrap;html=1;fontSize=11;glass=0;strokeWidth=1;shadow=0;" vertex="1" parent="K0Vo0GqA2gB-A2LjvXNX-1">
          <mxGeometry x="180" y="90" width="460" height="100" as="geometry" />
        </mxCell>
        <mxCell id="K0Vo0GqA2gB-A2LjvXNX-14" value="Implement the capability to promptly enact a full shutdown of the CM" style="rounded=1;whiteSpace=wrap;html=1;fontSize=12;glass=0;strokeWidth=1;shadow=0;" vertex="1" parent="K0Vo0GqA2gB-A2LjvXNX-1">
          <mxGeometry x="285" y="220" width="250" height="50" as="geometry" />
        </mxCell>
        <mxCell id="K0Vo0GqA2gB-A2LjvXNX-15" value="Model developer &lt;b&gt;shall:&lt;/b&gt;" style="text;strokeColor=none;align=left;fillColor=none;html=1;verticalAlign=middle;whiteSpace=wrap;rounded=0;" vertex="1" parent="K0Vo0GqA2gB-A2LjvXNX-1">
          <mxGeometry x="220" y="60" width="295" height="30" as="geometry" />
        </mxCell>
        <mxCell id="K0Vo0GqA2gB-A2LjvXNX-19" value="Yes" style="rounded=0;html=1;jettySize=auto;orthogonalLoop=1;fontSize=11;endArrow=block;endFill=0;endSize=8;strokeWidth=1;shadow=0;labelBackgroundColor=none;edgeStyle=orthogonalEdgeStyle;" edge="1" parent="K0Vo0GqA2gB-A2LjvXNX-1" target="K0Vo0GqA2gB-A2LjvXNX-22">
          <mxGeometry x="0.3333" y="20" relative="1" as="geometry">
            <mxPoint as="offset" />
            <mxPoint x="360" y="730" as="sourcePoint" />
          </mxGeometry>
        </mxCell>
        <mxCell id="K0Vo0GqA2gB-A2LjvXNX-22" value="Limited Duty Exemption" style="rounded=1;whiteSpace=wrap;html=1;fontSize=12;glass=0;strokeWidth=1;shadow=0;" vertex="1" parent="K0Vo0GqA2gB-A2LjvXNX-1">
          <mxGeometry x="290" y="760" width="140" height="40" as="geometry" />
        </mxCell>
        <mxCell id="K0Vo0GqA2gB-A2LjvXNX-27" value="Submit certification to FMD&lt;div&gt;(good-faith error is OK)&lt;/div&gt;" style="rounded=1;whiteSpace=wrap;html=1;fontSize=12;glass=0;strokeWidth=1;shadow=0;" vertex="1" parent="K0Vo0GqA2gB-A2LjvXNX-1">
          <mxGeometry x="280" y="830" width="160" height="40" as="geometry" />
        </mxCell>
        <mxCell id="K0Vo0GqA2gB-A2LjvXNX-28" value="" style="rounded=0;html=1;jettySize=auto;orthogonalLoop=1;fontSize=11;endArrow=block;endFill=0;endSize=8;strokeWidth=1;shadow=0;labelBackgroundColor=none;edgeStyle=orthogonalEdgeStyle;exitX=0.5;exitY=1;exitDx=0;exitDy=0;entryX=0.5;entryY=0;entryDx=0;entryDy=0;" edge="1" parent="K0Vo0GqA2gB-A2LjvXNX-1" source="K0Vo0GqA2gB-A2LjvXNX-22" target="K0Vo0GqA2gB-A2LjvXNX-27">
          <mxGeometry x="0.3333" y="20" relative="1" as="geometry">
            <mxPoint as="offset" />
            <mxPoint x="370" y="740" as="sourcePoint" />
            <mxPoint x="370" y="770" as="targetPoint" />
          </mxGeometry>
        </mxCell>
        <mxCell id="OZ2rDMLcD9gI6gJsYfBW-0" value="&amp;nbsp;Implement all &quot;covered guidance&quot;" style="rounded=1;whiteSpace=wrap;html=1;fontSize=12;glass=0;strokeWidth=1;shadow=0;" vertex="1" parent="K0Vo0GqA2gB-A2LjvXNX-1">
          <mxGeometry x="280" y="300" width="250" height="50" as="geometry" />
        </mxCell>
        <mxCell id="OZ2rDMLcD9gI6gJsYfBW-1" value="Implement a written and separate safety and security protocol that does all of the following:&lt;div&gt;&lt;span style=&quot;background-color: initial;&quot;&gt;&amp;nbsp; A.&amp;nbsp; &lt;b&gt;Reasonable &lt;/b&gt;assurance that resulting model either will:&lt;/span&gt;&lt;div&gt;&lt;span style=&quot;white-space: pre;&quot;&gt;&#x9;&lt;/span&gt;i. not have HC or enable DM with&lt;/div&gt;&lt;div&gt;&amp;nbsp; &amp;nbsp; &amp;nbsp; &amp;nbsp; &amp;nbsp; &amp;nbsp;HC, or&lt;br&gt;&lt;/div&gt;&lt;/div&gt;&lt;div&gt;&amp;nbsp; &amp;nbsp; &amp;nbsp; &amp;nbsp;ii. protocol will be sufficient to prevent &lt;b&gt;unreasonable &lt;/b&gt;risk&lt;/div&gt;&lt;div&gt;&amp;nbsp; &amp;nbsp; &amp;nbsp; &amp;nbsp; &amp;nbsp; &amp;nbsp;of critical harms from the exercise of the hazardous&lt;/div&gt;&lt;div&gt;&amp;nbsp; &amp;nbsp; &amp;nbsp; &amp;nbsp; &amp;nbsp; &amp;nbsp;capabilities&lt;/div&gt;&lt;div&gt;&amp;nbsp;B. Objectively verifiable compliance requirements&lt;/div&gt;&lt;div&gt;&amp;nbsp;C.&amp;nbsp;&lt;span style=&quot;background-color: initial;&quot;&gt;&amp;nbsp;Identifies specific tests and test results that would be sufficient to&lt;/span&gt;&lt;font style=&quot;background-color: initial;&quot; color=&quot;#B30000&quot;&gt;&lt;strike&gt; reasonably exclude the possibility&lt;/strike&gt;&lt;/font&gt;&lt;font style=&quot;background-color: initial;&quot; class=&quot;blue_text&quot; color=&quot;blue&quot;&gt;&lt;i&gt; provide reasonable assurance&lt;/i&gt;&lt;/font&gt;&lt;span style=&quot;background-color: initial;&quot;&gt; that a covered model&lt;/span&gt;&lt;font style=&quot;background-color: initial;&quot; color=&quot;#B30000&quot;&gt;&lt;strike&gt; has&lt;/strike&gt;&lt;/font&gt;&lt;font style=&quot;background-color: initial;&quot; class=&quot;blue_text&quot; color=&quot;blue&quot;&gt;&lt;i&gt; does not have&lt;/i&gt;&lt;/font&gt;&lt;span style=&quot;background-color: initial;&quot;&gt; a hazardous capability&lt;/span&gt;&lt;font style=&quot;background-color: initial;&quot; color=&quot;#B30000&quot;&gt;&lt;strike&gt; or may&lt;/strike&gt;&lt;/font&gt;&lt;font style=&quot;background-color: initial;&quot; class=&quot;blue_text&quot; color=&quot;blue&quot;&gt;&lt;i&gt; and will not&lt;/i&gt;&lt;/font&gt;&lt;span style=&quot;background-color: initial;&quot;&gt; come close to possessing a hazardous capability when accounting for a reasonable margin for safety&lt;br/&gt;&#x9;&#x9;&#x9;&#x9;&#x9;&#x9;  and the possibility of posttraining modifications, and in addition does all of the following:&lt;/span&gt;&lt;/div&gt;" style="rounded=1;whiteSpace=wrap;html=1;fontSize=11;glass=0;strokeWidth=1;shadow=0;align=left;" vertex="1" parent="K0Vo0GqA2gB-A2LjvXNX-1">
          <mxGeometry x="180" y="380" width="460" height="170" as="geometry" />
        </mxCell>
        <mxCell id="hoztp4ZJl7xUtryUVv4R-0" value="&lt;div&gt;&amp;nbsp; CH = Critical Harm&lt;/div&gt;&lt;div&gt;&amp;nbsp; CM = Covered Model&lt;/div&gt;&lt;div&gt;&amp;nbsp; DM = Derivative Model&lt;/div&gt;FMD =&amp;nbsp;&lt;span style=&quot;&quot;&gt;Frontier Model Division&lt;/span&gt;&lt;div&gt;&amp;nbsp; &amp;nbsp;FT = Fine Tuning&lt;/div&gt;&lt;div&gt;&amp;nbsp; HC = Hazardous Capability&lt;br&gt;&lt;div&gt;&amp;nbsp;LDE = Limited Duty Exemption&lt;span style=&quot;&quot;&gt;&lt;br&gt;&lt;/span&gt;&lt;/div&gt;&lt;div&gt;&lt;span style=&quot;&quot;&gt;NIST =&amp;nbsp;&lt;/span&gt;&lt;span style=&quot;background-color: initial;&quot;&gt;National Institute of&lt;/span&gt;&lt;/div&gt;&lt;div&gt;&lt;span style=&quot;background-color: initial;&quot;&gt;&amp;nbsp; &amp;nbsp; &amp;nbsp; &amp;nbsp; &amp;nbsp; &amp;nbsp; Standards and&lt;/span&gt;&lt;/div&gt;&lt;div&gt;&lt;span style=&quot;background-color: initial;&quot;&gt;&amp;nbsp; &amp;nbsp; &amp;nbsp; &amp;nbsp; &amp;nbsp; &amp;nbsp; Technology&lt;/span&gt;&lt;/div&gt;&lt;div&gt;&lt;br&gt;&lt;/div&gt;&lt;/div&gt;" style="text;html=1;align=left;verticalAlign=middle;whiteSpace=wrap;rounded=0;" vertex="1" parent="K0Vo0GqA2gB-A2LjvXNX-1">
          <mxGeometry x="20" y="210" width="170" height="170" as="geometry" />
        </mxCell>
      </root>
    </mxGraphModel>
  </diagram>
  <diagram id="5EmOrbvYEg2L4OPjrKG7" name="22603(c)">
    <mxGraphModel dx="519" dy="672" grid="1" gridSize="10" guides="1" tooltips="1" connect="1" arrows="1" fold="1" page="1" pageScale="1" pageWidth="850" pageHeight="1100" math="1" shadow="0">
      <root>
        <mxCell id="0" />
        <mxCell id="1" parent="0" />
        <mxCell id="WG0IjHgV-sonbd_nTBJX-1" value="(c) Does Limited Duty Exemption Apply?&lt;div&gt;&lt;b&gt;AFTER &lt;/b&gt;training &lt;font color=&quot;#ff0000&quot;&gt;Covered Model&lt;/font&gt; ...&lt;/div&gt;" style="text;strokeColor=none;align=center;fillColor=none;html=1;verticalAlign=middle;whiteSpace=wrap;rounded=0;" vertex="1" parent="1">
          <mxGeometry x="245" y="20" width="230" height="30" as="geometry" />
        </mxCell>
        <mxCell id="WG0IjHgV-sonbd_nTBJX-2" value="" style="rounded=0;html=1;jettySize=auto;orthogonalLoop=1;fontSize=11;endArrow=block;endFill=0;endSize=8;strokeWidth=1;shadow=0;labelBackgroundColor=none;edgeStyle=orthogonalEdgeStyle;entryX=0.5;entryY=0;entryDx=0;entryDy=0;" edge="1" parent="1" source="WG0IjHgV-sonbd_nTBJX-3" target="WG0IjHgV-sonbd_nTBJX-6">
          <mxGeometry relative="1" as="geometry">
            <mxPoint x="360" y="180" as="targetPoint" />
            <Array as="points" />
          </mxGeometry>
        </mxCell>
        <mxCell id="WG0IjHgV-sonbd_nTBJX-3" value="CM not subject to (pretraining) LDE under (a)&amp;nbsp;&lt;div&gt;&lt;br&gt;&lt;/div&gt;" style="rounded=1;whiteSpace=wrap;html=1;fontSize=12;glass=0;strokeWidth=1;shadow=0;" vertex="1" parent="1">
          <mxGeometry x="220" y="90" width="280" height="60" as="geometry" />
        </mxCell>
        <mxCell id="WG0IjHgV-sonbd_nTBJX-4" value="Yes" style="rounded=0;html=1;jettySize=auto;orthogonalLoop=1;fontSize=11;endArrow=block;endFill=0;endSize=8;strokeWidth=1;shadow=0;labelBackgroundColor=none;edgeStyle=orthogonalEdgeStyle;" edge="1" parent="1" source="WG0IjHgV-sonbd_nTBJX-6">
          <mxGeometry x="-0.7403" y="20" relative="1" as="geometry">
            <mxPoint as="offset" />
            <mxPoint x="360" y="340" as="targetPoint" />
          </mxGeometry>
        </mxCell>
        <mxCell id="WG0IjHgV-sonbd_nTBJX-5" value="No" style="edgeStyle=orthogonalEdgeStyle;rounded=0;html=1;jettySize=auto;orthogonalLoop=1;fontSize=11;endArrow=block;endFill=0;endSize=8;strokeWidth=1;shadow=0;labelBackgroundColor=none;" edge="1" parent="1" source="WG0IjHgV-sonbd_nTBJX-6" target="WG0IjHgV-sonbd_nTBJX-7">
          <mxGeometry y="10" relative="1" as="geometry">
            <mxPoint as="offset" />
          </mxGeometry>
        </mxCell>
        <mxCell id="WG0IjHgV-sonbd_nTBJX-6" value="&lt;span style=&quot;font-size: 11px;&quot;&gt;Pass&lt;/span&gt;&lt;div&gt;&lt;span style=&quot;font-size: 11px;&quot;&gt;model developer&lt;/span&gt;&lt;/div&gt;&lt;div&gt;&lt;span style=&quot;font-size: 11px;&quot;&gt;created capability testing to&lt;/span&gt;&lt;/div&gt;&lt;div&gt;&lt;span style=&quot;font-size: 11px;&quot;&gt;determnine if LDE&lt;/span&gt;&lt;/div&gt;&lt;div&gt;&lt;span style=&quot;font-size: 11px;&quot;&gt;applies&lt;/span&gt;&lt;/div&gt;" style="rhombus;whiteSpace=wrap;html=1;shadow=0;fontFamily=Helvetica;fontSize=12;align=center;strokeWidth=1;spacing=6;spacingTop=-6;" vertex="1" parent="1">
          <mxGeometry x="250" y="185" width="220" height="110" as="geometry" />
        </mxCell>
        <mxCell id="WG0IjHgV-sonbd_nTBJX-7" value="No LDE" style="rounded=1;whiteSpace=wrap;html=1;fontSize=12;glass=0;strokeWidth=1;shadow=0;" vertex="1" parent="1">
          <mxGeometry x="540" y="220" width="120" height="40" as="geometry" />
        </mxCell>
        <mxCell id="WG0IjHgV-sonbd_nTBJX-14" value="Model developer &lt;b&gt;shall &lt;/b&gt;make following determinations" style="text;strokeColor=none;align=center;fillColor=none;html=1;verticalAlign=middle;whiteSpace=wrap;rounded=0;" vertex="1" parent="1">
          <mxGeometry x="220" y="60" width="295" height="30" as="geometry" />
        </mxCell>
        <mxCell id="WG0IjHgV-sonbd_nTBJX-21" value="Submit to FMD:&lt;div&gt;1. basis for determnination of LDE&lt;/div&gt;&lt;div&gt;2.&amp;nbsp;&lt;span style=&quot;background-color: initial;&quot;&gt;&amp;nbsp;&lt;/span&gt;&lt;span style=&quot;background-color: initial;&quot;&gt;methodology &amp;amp; results of&amp;nbsp;&lt;/span&gt;&lt;span style=&quot;background-color: initial;&quot;&gt;capability testing&lt;/span&gt;&lt;/div&gt;" style="rounded=1;whiteSpace=wrap;html=1;fontSize=12;glass=0;strokeWidth=1;shadow=0;align=left;spacingLeft=13;" vertex="1" parent="1">
          <mxGeometry x="240" y="340" width="260" height="70" as="geometry" />
        </mxCell>
        <mxCell id="dDBzd5tZtnK2Dsnc47AM-1" value="&lt;div&gt;&amp;nbsp; CH = Critical Harm&lt;/div&gt;&lt;div&gt;&amp;nbsp; CM = Covered Model&lt;/div&gt;&lt;div&gt;&amp;nbsp; DM = Derivative Model&lt;/div&gt;FMD =&amp;nbsp;&lt;span style=&quot;&quot;&gt;Frontier Model Division&lt;/span&gt;&lt;div&gt;&amp;nbsp; &amp;nbsp;FT = Fine Tuning&lt;/div&gt;&lt;div&gt;&amp;nbsp; HC = Hazardous Capability&lt;br&gt;&lt;div&gt;&amp;nbsp;LDE = Limited Duty Exemption&lt;span style=&quot;&quot;&gt;&lt;br&gt;&lt;/span&gt;&lt;/div&gt;&lt;div&gt;&lt;span style=&quot;&quot;&gt;NIST =&amp;nbsp;&lt;/span&gt;&lt;span style=&quot;background-color: initial;&quot;&gt;National Institute of&lt;/span&gt;&lt;/div&gt;&lt;div&gt;&lt;span style=&quot;background-color: initial;&quot;&gt;&amp;nbsp; &amp;nbsp; &amp;nbsp; &amp;nbsp; &amp;nbsp; &amp;nbsp; Standards and&lt;/span&gt;&lt;/div&gt;&lt;div&gt;&lt;span style=&quot;background-color: initial;&quot;&gt;&amp;nbsp; &amp;nbsp; &amp;nbsp; &amp;nbsp; &amp;nbsp; &amp;nbsp; Technology&lt;/span&gt;&lt;/div&gt;&lt;div&gt;&lt;br&gt;&lt;/div&gt;&lt;/div&gt;" style="text;html=1;align=left;verticalAlign=middle;whiteSpace=wrap;rounded=0;" vertex="1" parent="1">
          <mxGeometry x="40" y="90" width="170" height="170" as="geometry" />
        </mxCell>
      </root>
    </mxGraphModel>
  </diagram>
  <diagram id="8sDLDkIWFCVAbJbosgYb" name="22603(d)">
    <mxGraphModel dx="519" dy="672" grid="1" gridSize="10" guides="1" tooltips="1" connect="1" arrows="1" fold="1" page="1" pageScale="1" pageWidth="850" pageHeight="1100" math="1" shadow="0">
      <root>
        <mxCell id="0" />
        <mxCell id="1" parent="0" />
        <mxCell id="rLC8foEk13rcf21ADYCq-1" value="(d) BEFORE&amp;nbsp;&lt;span style=&quot;background-color: initial;&quot;&gt;&amp;nbsp;commerical, public, or widspread use of covered model that is not LDE&lt;/span&gt;" style="text;strokeColor=none;align=center;fillColor=none;html=1;verticalAlign=middle;whiteSpace=wrap;rounded=0;" vertex="1" parent="1">
          <mxGeometry x="292" y="20" width="455" height="30" as="geometry" />
        </mxCell>
        <mxCell id="rLC8foEk13rcf21ADYCq-8" value="Model developer &lt;b&gt;shall:&lt;/b&gt;" style="text;strokeColor=none;align=center;fillColor=none;html=1;verticalAlign=middle;whiteSpace=wrap;rounded=0;" vertex="1" parent="1">
          <mxGeometry x="207" y="50" width="295" height="30" as="geometry" />
        </mxCell>
        <mxCell id="rLC8foEk13rcf21ADYCq-9" value="&lt;div&gt;Implement &lt;b&gt;reasonable &lt;/b&gt;safeguards and requirements informed by training and testing that:&lt;/div&gt;&lt;div&gt;&lt;ol&gt;&lt;li&gt;Prevent an individual from being able to use the HC of the model or a DM to cause a CH&lt;/li&gt;&lt;li&gt;Prevent an individual from being able to use the model to create a DM that is used to cause a CH&lt;/li&gt;&lt;li&gt;Ensure, to the extent &lt;b&gt;reasonably &lt;/b&gt;possible, that the CM’s &lt;br&gt;actions and any resulting CH can be accurately and reliably &lt;br&gt;attributed to it and any user responsible for those actions&lt;br&gt;&lt;/li&gt;&lt;/ol&gt;&lt;/div&gt;" style="rounded=1;whiteSpace=wrap;html=1;fontSize=12;glass=0;strokeWidth=1;shadow=0;align=left;spacingLeft=13;" vertex="1" parent="1">
          <mxGeometry x="284.5" y="90" width="455.5" height="160" as="geometry" />
        </mxCell>
        <mxCell id="rLC8foEk13rcf21ADYCq-10" value="&lt;ol&gt;&lt;li&gt;Provide &lt;b&gt;reasonable &lt;/b&gt;requirements to developers of DM to prevent individual from being able to use DM to cause CH&lt;/li&gt;&lt;li&gt;&lt;font class=&quot;blue_text&quot;&gt;If a developer provides access to DM in form that makes FT possible, provide information that enables determining if they have done FT to meet the &amp;gt;25% FT threshold&lt;/font&gt;&lt;/li&gt;&lt;/ol&gt;" style="rounded=1;whiteSpace=wrap;html=1;fontSize=12;glass=0;strokeWidth=1;shadow=0;align=left;spacingLeft=-19;" vertex="1" parent="1">
          <mxGeometry x="284.5" y="290" width="455.5" height="140" as="geometry" />
        </mxCell>
        <mxCell id="rLC8foEk13rcf21ADYCq-11" value="&lt;br&gt;&amp;nbsp;Refrain from initiating the commercial, public, or widespread use of a CM if there remains an &lt;b&gt;unreasonable &lt;/b&gt;risk that an individual may be able to use the HC of the model, or a DM based on it, to cause a CH" style="rounded=1;whiteSpace=wrap;html=1;fontSize=12;glass=0;strokeWidth=1;shadow=0;align=left;spacingLeft=15;" vertex="1" parent="1">
          <mxGeometry x="284.5" y="470" width="455.5" height="100" as="geometry" />
        </mxCell>
        <mxCell id="rLC8foEk13rcf21ADYCq-12" value="&lt;div&gt;Implement other measures that are &lt;b&gt;reasonably &lt;/b&gt;necessary, including in light of applicable guidance from the FMD, NIST, and standard-setting organizations, to prevent the development or exercise of HC or to manage the risks arising from them.&lt;br&gt;&lt;/div&gt;" style="rounded=1;whiteSpace=wrap;html=1;fontSize=12;glass=0;strokeWidth=1;shadow=0;align=left;spacingLeft=15;" vertex="1" parent="1">
          <mxGeometry x="284.5" y="610" width="455.5" height="120" as="geometry" />
        </mxCell>
        <mxCell id="JrbGrrCC9ZH_5CJMhI8y-1" value="" style="rounded=0;html=1;jettySize=auto;orthogonalLoop=1;fontSize=11;endArrow=block;endFill=0;endSize=8;strokeWidth=1;shadow=0;labelBackgroundColor=none;edgeStyle=orthogonalEdgeStyle;exitX=0.5;exitY=1;exitDx=0;exitDy=0;entryX=0.5;entryY=0;entryDx=0;entryDy=0;" edge="1" parent="1" source="rLC8foEk13rcf21ADYCq-9" target="rLC8foEk13rcf21ADYCq-10">
          <mxGeometry x="-0.7403" y="20" relative="1" as="geometry">
            <mxPoint as="offset" />
            <mxPoint x="407" y="245" as="sourcePoint" />
            <mxPoint x="407" y="290" as="targetPoint" />
          </mxGeometry>
        </mxCell>
        <mxCell id="JrbGrrCC9ZH_5CJMhI8y-2" value="" style="rounded=0;html=1;jettySize=auto;orthogonalLoop=1;fontSize=11;endArrow=block;endFill=0;endSize=8;strokeWidth=1;shadow=0;labelBackgroundColor=none;edgeStyle=orthogonalEdgeStyle;exitX=0.5;exitY=1;exitDx=0;exitDy=0;" edge="1" parent="1" source="rLC8foEk13rcf21ADYCq-10" target="rLC8foEk13rcf21ADYCq-11">
          <mxGeometry x="-0.7403" y="20" relative="1" as="geometry">
            <mxPoint as="offset" />
            <mxPoint x="417" y="255" as="sourcePoint" />
            <mxPoint x="417" y="300" as="targetPoint" />
          </mxGeometry>
        </mxCell>
        <mxCell id="JrbGrrCC9ZH_5CJMhI8y-3" value="" style="rounded=0;html=1;jettySize=auto;orthogonalLoop=1;fontSize=11;endArrow=block;endFill=0;endSize=8;strokeWidth=1;shadow=0;labelBackgroundColor=none;edgeStyle=orthogonalEdgeStyle;exitX=0.5;exitY=1;exitDx=0;exitDy=0;entryX=0.5;entryY=0;entryDx=0;entryDy=0;" edge="1" parent="1" source="rLC8foEk13rcf21ADYCq-11" target="rLC8foEk13rcf21ADYCq-12">
          <mxGeometry x="-0.7403" y="20" relative="1" as="geometry">
            <mxPoint as="offset" />
            <mxPoint x="427" y="265" as="sourcePoint" />
            <mxPoint x="427" y="310" as="targetPoint" />
          </mxGeometry>
        </mxCell>
        <mxCell id="JrbGrrCC9ZH_5CJMhI8y-4" value="&lt;div&gt;&amp;nbsp; CH = Critical Harm&lt;/div&gt;&lt;div&gt;&amp;nbsp; CM = Covered Model&lt;/div&gt;&lt;div&gt;&amp;nbsp; DM = Derivative Model&lt;/div&gt;FMD =&amp;nbsp;&lt;span style=&quot;&quot;&gt;Frontier Model Division&lt;/span&gt;&lt;div&gt;&amp;nbsp; &amp;nbsp;FT = Fine Tuning&lt;/div&gt;&lt;div&gt;&amp;nbsp; HC = Hazardous Capability&lt;br&gt;&lt;div&gt;&amp;nbsp;LDE = Limited Duty Exemption&lt;span style=&quot;&quot;&gt;&lt;br&gt;&lt;/span&gt;&lt;/div&gt;&lt;div&gt;&lt;span style=&quot;&quot;&gt;NIST =&amp;nbsp;&lt;/span&gt;&lt;span style=&quot;background-color: initial;&quot;&gt;National Institute of&lt;/span&gt;&lt;/div&gt;&lt;div&gt;&lt;span style=&quot;background-color: initial;&quot;&gt;&amp;nbsp; &amp;nbsp; &amp;nbsp; &amp;nbsp; &amp;nbsp; &amp;nbsp; Standards and&lt;/span&gt;&lt;/div&gt;&lt;div&gt;&lt;span style=&quot;background-color: initial;&quot;&gt;&amp;nbsp; &amp;nbsp; &amp;nbsp; &amp;nbsp; &amp;nbsp; &amp;nbsp; Technology&lt;/span&gt;&lt;/div&gt;&lt;div&gt;&lt;br&gt;&lt;/div&gt;&lt;/div&gt;" style="text;html=1;align=left;verticalAlign=middle;whiteSpace=wrap;rounded=0;" vertex="1" parent="1">
          <mxGeometry x="70" y="120" width="170" height="170" as="geometry" />
        </mxCell>
      </root>
    </mxGraphModel>
  </diagram>
</mxfile>
